<svg width="25" height="25" viewBox="0 0 16 16" class="icon" style="shape-rendering: geometricprecision; fill: white" xmlns="http://www.w3.org/2000/svg" xmlns:xlink="http://www.w3.org/1999/xlink">
	<path fill-rule="nonzero" d="M13.5 4C13.3674 4.00002 13.2402 4.05271 13.1465 4.14648L6.49999 10.793L3.3535 7.64648C3.25974 7.55274 3.13258 7.50008 2.99999 7.50008C2.8674 7.50008 2.74023 7.55274 2.64647 7.64648C2.55272 7.74025 2.50006 7.86741 2.50006 8C2.50006 8.13259 2.55272 8.25975 2.64647 8.35352L6.14647 11.8535C6.24024 11.9472 6.3674 11.9999 6.49999 11.9999C6.63257 11.9999 6.75973 11.9472 6.8535 11.8535L13.8535 4.85352C13.9472 4.75975 13.9999 4.63259 13.9999 4.5C13.9999 4.36741 13.9472 4.24025 13.8535 4.14648C13.7597 4.05271 13.6326 4.00002 13.5 4Z" />
</svg>